<svg width="59" height="51" viewBox="0 0 59 51" fill="none" xmlns="http://www.w3.org/2000/svg">
<path d="M9.05458 15.2621C9.05458 14.7098 9.50229 14.2621 10.0546 14.2621C10.6067 14.2623 11.0546 14.7099 11.0546 15.2621C11.0546 18.4472 10.9409 25.7924 10.8466 29.0785C10.7835 31.2741 10.4126 32.912 10.2802 43.3676C10.2795 45.5624 10.3105 46.0179 10.3436 46.4623C10.3784 46.9284 10.4149 47.345 10.538 47.9515C10.6475 48.4925 10.2977 49.0204 9.75673 49.1302C9.21555 49.2401 8.68796 48.8901 8.57802 48.349C8.43035 47.6214 8.38661 47.1086 8.3495 46.6107C8.31084 46.092 8.27941 45.5778 8.28016 43.3549V43.3422C8.41106 33.0102 8.7938 30.8925 8.84755 29.0209C8.94142 25.7518 9.05458 18.426 9.05458 15.2621Z" fill="black"/>
<path d="M44.7847 14.2995C45.3368 14.3057 45.7799 14.7582 45.7739 15.3102C45.7425 18.1223 45.8819 25.1399 46.105 28.5534C46.2046 30.0778 46.3631 31.3815 46.5269 32.6452C46.6899 33.9036 46.8605 35.1408 46.9712 36.487C47.0702 37.6911 47.2057 38.9194 47.3472 40.0827L47.7593 43.2897L47.7632 43.3229L47.7651 43.3561C47.8449 44.6142 47.9065 45.7875 47.9839 46.7487C48.0268 47.1775 48.0851 47.5911 48.3345 48.9733C48.4325 49.5168 48.0713 50.0374 47.5278 50.1354C46.9845 50.2332 46.4648 49.8721 46.3667 49.3288C46.1129 47.9221 46.044 47.4492 45.9927 46.9313L45.9917 46.9226V46.9128C45.9133 45.9391 45.8487 44.7346 45.772 43.5212C45.5281 41.655 45.18 39.1058 44.978 36.6501C44.8721 35.3621 44.7092 34.1811 44.5435 32.902C44.3784 31.6284 44.2128 30.2741 44.1089 28.6843C43.8819 25.2105 43.742 18.1415 43.7739 15.2888C43.7801 14.7365 44.2324 14.2933 44.7847 14.2995Z" fill="black"/>
<path d="M32.0116 34.267C33.0636 33.8244 34.4325 33.8441 35.6855 33.9535C36.5039 34.025 37.1323 34.4416 37.5946 34.9281C38.0462 35.4033 38.3799 35.9862 38.6347 36.5072C39.2278 37.7202 39.4145 39.0328 39.5048 40.1918C39.5896 41.2809 39.5915 42.1298 39.6894 42.89L39.7382 43.2103L39.7401 43.225L39.7421 43.2406C39.8116 43.725 39.8762 44.2435 39.9257 44.7728C39.9731 45.28 40.0025 45.7546 40.2177 47.0902C40.3055 47.6353 39.9346 48.1487 39.3896 48.2367C38.8443 48.3245 38.3309 47.9538 38.2431 47.4086C38.0165 46.0023 37.9824 45.4709 37.9345 44.9584C37.8886 44.4681 37.8284 43.9831 37.7626 43.5248V43.5238C37.6003 42.5702 37.5879 41.3392 37.5107 40.347C37.4258 39.2584 37.2615 38.2526 36.8378 37.3861C36.6168 36.9341 36.3891 36.5635 36.1444 36.306C35.9105 36.0599 35.708 35.9639 35.5116 35.9466C34.2596 35.8374 33.3397 35.8773 32.787 36.1097C32.3313 36.3015 31.9384 36.4633 31.6015 36.6791C31.2784 36.886 31.0909 37.0924 30.997 37.3216C30.5594 38.3907 30.2381 39.2942 30.289 40.2816C30.4638 43.6715 31.2521 46.2994 31.4374 46.9086C31.5979 47.4368 31.3005 47.9948 30.7724 48.1556C30.2441 48.3164 29.6852 48.0188 29.5243 47.4906C29.3207 46.8214 28.479 44.0131 28.2919 40.3841C28.2157 38.9056 28.7093 37.6303 29.1454 36.5648C29.4494 35.8222 29.9962 35.3315 30.5224 34.9945C31.0349 34.6662 31.6077 34.4369 32.0116 34.267Z" fill="black"/>
<path d="M34.3751 42.1511C34.571 41.6347 35.1478 41.3751 35.6642 41.571C36.1806 41.7668 36.4401 42.3437 36.2443 42.86L36.1368 43.1432C35.941 43.6595 35.3641 43.92 34.8478 43.7243C34.3314 43.5284 34.0718 42.9506 34.2677 42.4343L34.3751 42.1511Z" fill="black"/>
<path d="M15.0643 20.0751C17.8828 19.9492 20.2446 19.912 21.6248 20.0702C22.3212 20.1501 22.8685 20.2867 23.2948 20.5263C23.6546 20.7286 23.8785 20.9756 24.0321 21.2108L24.1649 21.4403L24.2 21.5087L24.2235 21.581C24.5006 22.4043 24.8757 23.5877 25.1209 24.8749C25.3639 26.1504 25.4947 27.6019 25.2313 28.9403C25.1735 29.234 25.0611 29.5763 24.8602 29.8837C24.6587 30.1919 24.3152 30.5404 23.7889 30.6581C22.8069 30.8778 21.7208 30.7495 20.8446 30.6464C20.5479 30.6115 20.17 30.6357 19.6942 30.6991C19.2905 30.753 18.6688 30.8601 18.2069 30.912C17.7111 30.9677 17.1258 31.0012 16.5819 30.871C15.989 30.729 15.4162 30.3825 15.0809 29.7069C14.8351 29.2116 14.7099 28.5506 14.5946 27.953C14.4688 27.3015 14.3308 26.5597 14.0877 25.7069C13.5994 23.9938 13.1472 22.1898 13.0438 21.6063C12.9477 21.0628 13.3098 20.5436 13.8533 20.4472C14.0108 20.4193 14.1658 20.4322 14.3094 20.4745C14.4826 20.2437 14.7535 20.0891 15.0643 20.0751ZM21.3973 22.0575C20.2071 21.921 18.0198 21.9457 15.1951 22.0712C15.3818 22.8462 15.6809 24.0027 16.0106 25.1591C16.2814 26.1091 16.4351 26.9353 16.5584 27.5741C16.6922 28.267 16.7745 28.62 16.8729 28.8183C16.8921 28.8571 16.9069 28.892 17.0477 28.9257C17.2382 28.9713 17.535 28.9751 17.9832 28.9247C18.4653 28.8705 18.8503 28.7941 19.4305 28.7167C19.9384 28.649 20.5222 28.5945 21.0789 28.6601C21.9533 28.763 22.6472 28.8252 23.2137 28.7304C23.2174 28.7218 23.2235 28.7133 23.2274 28.703C23.2438 28.6593 23.2588 28.6082 23.2694 28.5546C23.4618 27.5769 23.3779 26.4134 23.1561 25.2489C22.9441 24.1363 22.6186 23.0899 22.3553 22.3026C22.3508 22.2958 22.3486 22.2931 22.3485 22.2929V22.2919C22.3482 22.2917 22.3471 22.2912 22.3455 22.2899C22.3425 22.2875 22.3334 22.2806 22.3153 22.2704C22.2289 22.2219 21.9889 22.1254 21.3973 22.0575Z" fill="black"/>
<path d="M18.5688 21.0466C18.8194 20.9308 19.117 21.0401 19.2329 21.2907C19.3017 21.4397 19.3667 21.6656 19.4282 21.905C19.493 22.1574 19.5645 22.4706 19.643 22.819C19.8011 23.5206 19.9883 24.3782 20.2065 25.2507C20.4594 26.0944 20.683 26.9875 20.8725 27.9206L21.0161 28.6452C21.0645 28.9103 21.1131 29.2119 21.1625 29.5886C21.1985 29.8624 21.0057 30.1142 20.7319 30.1501C20.4583 30.1857 20.2072 29.9921 20.1713 29.7185C20.0776 29.0038 19.9876 28.5814 19.893 28.1227V28.1208C19.7075 27.2072 19.489 26.3359 19.2426 25.5163L19.2387 25.5046L19.2358 25.4929C19.014 24.6057 18.8235 23.7311 18.6674 23.0388C18.5889 22.6903 18.5201 22.3905 18.4594 22.154C18.3954 21.9046 18.3497 21.765 18.3247 21.7106C18.2089 21.46 18.3182 21.1624 18.5688 21.0466Z" fill="black"/>
<path d="M23.725 25.0036C23.9994 24.9739 24.246 25.1725 24.2758 25.447C24.3054 25.7214 24.1069 25.968 23.8324 25.9977C21.8986 26.2075 21.3025 26.2887 20.6771 26.3913C20.0516 26.494 19.3791 26.6215 18.5765 26.7272L18.5658 26.7282C17.7154 26.8219 17.0512 26.89 16.5883 26.9343C16.145 26.9766 15.8527 27.0007 15.7787 27.0007C15.5025 27.0007 15.2787 26.7768 15.2787 26.5007C15.2787 26.2245 15.5025 26.0007 15.7787 26.0007C15.774 26.0007 15.8235 25.9986 15.9623 25.987C16.0873 25.9766 16.2649 25.96 16.4935 25.9382C16.951 25.8945 17.61 25.8273 18.4564 25.7341C19.2336 25.6314 19.8641 25.5118 20.515 25.405C21.1687 25.2977 21.7872 25.2138 23.725 25.0036Z" fill="black"/>
<path d="M39.9968 19.9916L40.1072 20.8559C40.2507 21.9781 40.4904 22.921 40.6883 24.06C40.8748 25.1337 40.9976 26.2753 40.7888 27.4496C40.7447 27.6978 40.6628 28.0778 40.4568 28.4282C40.2274 28.8181 39.8395 29.1755 39.2527 29.2895C39.0092 29.3367 38.7215 29.4225 38.3504 29.5385C37.997 29.649 37.5775 29.783 37.1394 29.892C36.2635 30.11 35.1893 30.2618 34.075 29.9301C33.4097 29.7321 32.8276 29.2249 32.572 28.5258C32.2643 27.6838 32.0486 26.7726 31.8709 25.8881C31.5177 24.1305 31.2628 22.2087 31.198 21.6235C31.1374 21.0748 31.5332 20.5809 32.0818 20.52C32.1861 20.5084 32.2887 20.5143 32.3865 20.5336C32.4785 20.4752 32.581 20.4301 32.6931 20.4037C33.7169 20.1635 34.327 20.1273 34.9666 20.1108H34.9802C35.5689 20.1034 36.216 20.0689 36.9265 20.0366C37.6269 20.0047 38.3767 19.9755 39.1258 19.9828L39.9968 19.9916ZM38.2576 21.9897C37.8447 21.9991 37.43 22.0158 37.0174 22.0346C36.3357 22.0656 35.6455 22.1016 35.0174 22.1098C34.5055 22.123 34.0624 22.1473 33.3035 22.3159C33.4194 23.1533 33.6046 24.3626 33.8318 25.4936C34.0025 26.3432 34.195 27.139 34.4509 27.8393C34.4775 27.9118 34.5516 27.9862 34.6453 28.0141C35.2581 28.1965 35.9209 28.1347 36.657 27.9516C37.0248 27.8601 37.3804 27.747 37.7537 27.6303C38.073 27.5305 38.4216 27.424 38.7576 27.351C38.7608 27.3417 38.7667 27.3315 38.7703 27.3198C38.7878 27.262 38.804 27.1903 38.8201 27.1C38.9673 26.2723 38.8917 25.4053 38.7175 24.4028C38.5959 23.7026 38.4069 22.8546 38.2576 21.9897Z" fill="black"/>
<path d="M35.9163 21.0726C36.1835 21.003 36.4561 21.1629 36.5257 21.4301C36.6825 22.0318 37.1247 23.8008 37.473 25.5375C37.5688 25.9701 37.6609 26.4011 37.7747 26.8851C37.8879 27.3665 38.0254 27.9074 38.1654 28.6527C38.2163 28.9241 38.0373 29.1857 37.7659 29.2367C37.4945 29.2876 37.2329 29.1087 37.182 28.8373C37.0474 28.1204 36.9174 27.6086 36.8011 27.1137C36.6854 26.6214 36.5913 26.1784 36.4974 25.7543L36.4945 25.7445C36.1509 24.03 35.7134 22.2746 35.5589 21.682C35.4893 21.4148 35.6491 21.1423 35.9163 21.0726Z" fill="black"/>
<path d="M38.9613 24.0124C39.2305 23.9525 39.4977 24.1221 39.558 24.3913C39.6181 24.6607 39.4484 24.9286 39.1791 24.9889C38.559 25.1274 38.0548 25.1597 37.4467 25.1921C36.835 25.2246 36.1703 25.2554 35.6078 25.3757C35.0743 25.5514 34.6797 25.6955 34.4095 25.7956C34.2751 25.8454 34.1623 25.8875 34.0844 25.9157C34.0452 25.9298 34.0059 25.9432 33.972 25.9538C33.9554 25.959 33.9339 25.9658 33.9105 25.9714C33.8958 25.9748 33.8432 25.987 33.7787 25.987C33.5025 25.987 33.2787 25.7631 33.2787 25.487C33.2788 25.2447 33.4512 25.0425 33.6801 24.9967C33.6921 24.9929 33.7126 24.9868 33.7445 24.9753C33.8177 24.9488 33.9188 24.9105 34.0629 24.8571C34.3453 24.7525 34.7616 24.6016 35.3246 24.4167L35.349 24.4089L35.3734 24.403C36.0373 24.2578 36.8035 24.2254 37.3939 24.194C37.9954 24.162 38.4283 24.1314 38.9613 24.0124ZM33.7084 24.9928C33.6988 24.9943 33.6911 24.9956 33.6859 24.9967C33.716 24.9911 33.7469 24.987 33.7787 24.987C33.7454 24.987 33.7198 24.9911 33.7084 24.9928Z" fill="black"/>
<path d="M20.0103 0.311467C20.6221 -0.0345674 21.3367 -0.0697704 21.9449 0.0956465C22.9562 0.370888 23.8158 0.94636 24.5689 1.51362C25.3702 2.11709 26.0153 2.67811 26.7984 3.17865C28.908 4.52704 30.9751 5.89953 32.8287 6.94233C35.6062 8.50488 37.942 9.4703 39.5396 10.2265C41.1829 11.0043 42.9733 11.9962 44.9918 13.2646C45.8818 13.8238 46.8005 14.3115 47.8443 14.8466C48.8814 15.3783 50.044 15.9585 51.3726 16.6845L51.3883 16.6923L51.4019 16.7011C53.026 17.6605 54.1395 18.3003 54.9439 18.663L55.2701 18.8017L55.2847 18.8066L55.2984 18.8134C55.808 19.0331 56.2635 19.2625 57.6109 19.7958C58.1242 19.9992 58.3756 20.5803 58.1724 21.0937C57.9692 21.6072 57.3881 21.8585 56.8746 21.6552C55.4929 21.1083 54.9486 20.8395 54.5074 20.6494V20.6484C53.5126 20.2509 52.1869 19.4868 50.4137 18.4394C49.1155 17.73 47.9907 17.1686 46.9322 16.6259C45.8804 16.0867 44.8958 15.5665 43.9273 14.958C41.961 13.7224 40.2413 12.7712 38.6842 12.0341C37.1842 11.3242 34.7073 10.293 31.8482 8.68451C29.9298 7.6052 27.7831 6.18113 25.7213 4.86322C24.8559 4.31005 24.0308 3.61285 23.3648 3.11127C22.6509 2.57363 22.0457 2.19555 21.4205 2.02533C21.2353 1.97492 21.077 2.00595 20.9957 2.0517C20.9056 2.10264 20.777 2.22481 20.4283 2.79291C18.8204 5.4123 17.3104 7.2221 15.9781 8.8935C14.5685 10.6619 12.9391 12.7017 11.4498 14.2216C11.1276 14.5504 10.7652 14.9676 10.3394 15.4599C9.92076 15.9441 9.44973 16.491 8.93807 17.0439C7.91809 18.1461 6.68979 19.3229 5.24764 20.1865C4.42337 20.68 3.62411 21.1833 2.95662 21.5996C2.32505 21.9934 1.74114 22.3557 1.42244 22.5038C0.921637 22.7367 0.326174 22.5193 0.0933429 22.0185C-0.139415 21.5178 0.078182 20.9233 0.578694 20.6904C0.755761 20.6081 1.2042 20.335 1.89803 19.9023C2.55612 19.4919 3.37626 18.9761 4.2203 18.4706C5.42164 17.7512 6.49846 16.7356 7.4703 15.6855C7.95466 15.1621 8.40164 14.6418 8.82576 14.1513C9.24268 13.6692 9.6482 13.2028 10.0221 12.8212C11.4255 11.3889 12.9874 9.43665 14.4137 7.6474C15.7674 5.94906 17.1933 4.24006 18.7242 1.74604C19.041 1.22993 19.4077 0.652456 20.0103 0.311467Z" fill="black"/>
</svg>
