<svg xmlns="http://www.w3.org/2000/svg" viewBox="0 0 150 150" fill="none">
  <circle cx="75" cy="75" r="74.5" stroke="#010101"/>
  <path fill="#010101" d="M39 101c-11-4-11-16-3-21-7-8-2-19 7-19-3-10 7-18 16-13 3-10 16-12 22-4 7-8 19-4 20 6 10-4 19 5 16 15 10 1 13 14 5 21 7 6 3 18-7 19-6 8-18 6-21-3H56c-3 9-14 11-20 3Z"/>
  <path fill="#F2F2F2" stroke="#010101" d="M50 79c0-20 11-32 26-32 17 0 28 14 28 35 0 22-12 37-28 37-15 0-26-16-26-40Z"/>
  <path stroke="#010101" stroke-linecap="round" stroke-width="2" d="M56 77c4-4 9-4 13-1m16 0c4-3 9-3 13 1M76 79l-2 17 5 1m-11 9c5 4 11 4 16 0"/>
  <circle cx="63" cy="82" r="2.2" fill="#010101"/>
  <circle cx="91" cy="82" r="2.2" fill="#010101"/>
  <path fill="#010101" d="M48 73c2-19 12-31 28-31 17 0 28 12 30 31-8-9-17-14-29-14-11 0-21 5-29 14Z"/>
  <circle cx="43" cy="61" r="8" fill="#010101"/>
  <circle cx="53" cy="50" r="8" fill="#010101"/>
  <circle cx="67" cy="45" r="8" fill="#010101"/>
  <circle cx="82" cy="45" r="8" fill="#010101"/>
  <circle cx="96" cy="51" r="8" fill="#010101"/>
  <circle cx="107" cy="62" r="8" fill="#010101"/>
</svg>
